<svg width="260" height="40" viewBox="0 0 260 40" fill="none" xmlns="http://www.w3.org/2000/svg">
<path d="M7.85048 38.1466C5.57492 38.1466 3.85403 37.3866 2.68781 35.8666C1.52159 34.3128 0.938477 32.1004 0.938477 29.2293V27.2026H5.37581V29.6346C5.37581 31.9315 6.18648 33.08 7.80781 33.08C8.60426 33.08 9.20159 32.8097 9.59981 32.2693C10.0265 31.6951 10.2398 30.7831 10.2398 29.5333C10.2398 28.0471 9.95537 26.7466 9.38648 25.632C8.81759 24.4835 7.76514 23.1155 6.22914 21.528C4.29492 19.5013 2.94381 17.6773 2.17581 16.056C1.40781 14.4008 1.02381 12.5431 1.02381 10.4826C1.02381 7.67907 1.62114 5.51729 2.81581 3.99729C4.01048 2.44351 5.74559 1.66663 8.02114 1.66663C10.2683 1.66663 11.9607 2.44351 13.0985 3.99729C14.2647 5.51729 14.8478 7.71285 14.8478 10.584V12.0533H10.4105V10.2293C10.4105 9.01329 10.2114 8.13507 9.81314 7.59462C9.41492 7.0204 8.83181 6.73329 8.06381 6.73329C6.49937 6.73329 5.71714 7.86485 5.71714 10.128C5.71714 11.4115 6.00159 12.6106 6.57048 13.7253C7.16781 14.84 8.23448 16.1911 9.77048 17.7786C11.7331 19.8053 13.0843 21.6462 13.8238 23.3013C14.5634 24.9564 14.9331 26.8986 14.9331 29.128C14.9331 32.0329 14.3216 34.2622 13.0985 35.816C11.9038 37.3697 10.1545 38.1466 7.85048 38.1466Z" fill="#989397"/>
<path fill-rule="evenodd" clip-rule="evenodd" d="M21.1258 2.17329H27.4831L32.3471 37.64H27.6538L26.8005 30.5973V30.6986H21.4671L20.6138 37.64H16.2618L21.1258 2.17329ZM26.2458 25.8853L24.1551 8.35463H24.0698L22.0218 25.8853H26.2458Z" fill="#989397"/>
<path d="M35.4378 35.8666C36.604 37.3866 38.3249 38.1466 40.6005 38.1466C42.9045 38.1466 44.6538 37.3697 45.8485 35.816C47.0716 34.2622 47.6832 32.0329 47.6832 29.128C47.6832 26.8986 47.3134 24.9564 46.5738 23.3013C45.8343 21.6462 44.4832 19.8053 42.5205 17.7786C40.9845 16.1911 39.9178 14.84 39.3205 13.7253C38.7516 12.6106 38.4671 11.4115 38.4671 10.128C38.4671 7.86485 39.2494 6.73329 40.8138 6.73329C41.5818 6.73329 42.1649 7.0204 42.5631 7.59462C42.9614 8.13507 43.1605 9.01329 43.1605 10.2293V12.0533H47.5978V10.584C47.5978 7.71285 47.0147 5.51729 45.8485 3.99729C44.7107 2.44351 43.0183 1.66663 40.7711 1.66663C38.4956 1.66663 36.7605 2.44351 35.5658 3.99729C34.3711 5.51729 33.7738 7.67907 33.7738 10.4826C33.7738 12.5431 34.1578 14.4008 34.9258 16.056C35.6938 17.6773 37.0449 19.5013 38.9791 21.528C40.5151 23.1155 41.5676 24.4835 42.1365 25.632C42.7054 26.7466 42.9898 28.0471 42.9898 29.5333C42.9898 30.7831 42.7765 31.6951 42.3498 32.2693C41.9516 32.8097 41.3543 33.08 40.5578 33.08C38.9365 33.08 38.1258 31.9315 38.1258 29.6346V27.2026H33.6885V29.2293C33.6885 32.1004 34.2716 34.3128 35.4378 35.8666Z" fill="#989397"/>
<path d="M50.3742 2.17329H55.0675V16.6133H60.1021V2.17329H64.7955V37.64H60.1021V21.68H55.0675V37.64H50.3742V2.17329Z" fill="#989397"/>
<path fill-rule="evenodd" clip-rule="evenodd" d="M78.2748 2.17329H71.9175L67.0535 37.64H71.4055L72.2588 30.6986H77.5922V30.5973L78.4455 37.64H83.1388L78.2748 2.17329ZM74.9468 8.35463L77.0375 25.8853H72.8135L74.8615 8.35463H74.9468Z" fill="#989397"/>
<path fill-rule="evenodd" clip-rule="evenodd" d="M95.8758 2.17329H102.233L107.097 37.64H102.404L101.55 30.5973V30.6986H96.2172L95.3638 37.64H91.0118L95.8758 2.17329ZM100.996 25.8853L98.9052 8.35463H98.8198L96.7718 25.8853H100.996Z" fill="#989397"/>
<path fill-rule="evenodd" clip-rule="evenodd" d="M116.329 2.17329H109.374V37.64H114.067V22.44H115.689C116.77 22.44 117.523 22.7608 117.95 23.4026C118.405 24.0444 118.633 25.176 118.633 26.7973V33.2826C118.633 34.6 118.661 35.512 118.718 36.0186C118.775 36.5253 118.889 37.0657 119.059 37.64H123.838C123.611 37.032 123.468 36.424 123.411 35.816C123.355 35.1742 123.326 34.3466 123.326 33.3333V27.1013C123.326 25.0071 123.084 23.3351 122.601 22.0853C122.146 20.8355 121.349 20.008 120.211 19.6026V19.5013C122.259 18.5217 123.283 16.1911 123.283 12.5093V10.3306C123.283 7.56085 122.729 5.51729 121.619 4.19996C120.51 2.84885 118.747 2.17329 116.329 2.17329ZM117.865 16.512C117.41 17.0862 116.713 17.3733 115.774 17.3733H114.067V7.23996H116.201C117.026 7.23996 117.623 7.52707 117.993 8.10129C118.391 8.67551 118.59 9.6044 118.59 10.888V13.624C118.59 14.9751 118.348 15.9377 117.865 16.512Z" fill="#989397"/>
<path d="M133.409 38.1466C131.134 38.1466 129.398 37.3866 128.204 35.8666C127.009 34.3128 126.412 32.1004 126.412 29.2293V2.17329H131.105V29.6346C131.105 30.8506 131.304 31.7288 131.702 32.2693C132.129 32.8097 132.727 33.08 133.494 33.08C134.262 33.08 134.846 32.8097 135.244 32.2693C135.671 31.7288 135.884 30.8506 135.884 29.6346V2.17329H140.406V29.2293C140.406 32.1004 139.809 34.3128 138.615 35.8666C137.42 37.3866 135.685 38.1466 133.409 38.1466Z" fill="#989397"/>
<path d="M142.512 7.23996H147.418V37.64H152.112V7.23996H157.018V2.17329H142.512V7.23996Z" fill="#989397"/>
<path d="M163.767 22.5413L158.092 2.17329H163.084L166.284 15.1946H166.369L169.57 2.17329H174.135L168.46 22.5413V37.64H163.767V22.5413Z" fill="#989397"/>
<path d="M177.87 35.8666C179.065 37.3866 180.8 38.1466 183.076 38.1466C185.351 38.1466 187.087 37.3866 188.281 35.8666C189.476 34.3128 190.073 32.1004 190.073 29.2293V2.17329H185.55V29.6346C185.55 30.8506 185.337 31.7288 184.911 32.2693C184.512 32.8097 183.929 33.08 183.161 33.08C182.393 33.08 181.796 32.8097 181.369 32.2693C180.971 31.7288 180.772 30.8506 180.772 29.6346V2.17329H176.078V29.2293C176.078 32.1004 176.676 34.3128 177.87 35.8666Z" fill="#989397"/>
<path d="M193.416 2.17329H199.304L203.869 23.4026H203.954V2.17329H208.136V37.64H203.314L197.682 11.7493H197.597V37.64H193.416V2.17329Z" fill="#989397"/>
<path fill-rule="evenodd" clip-rule="evenodd" d="M213.117 35.816C214.341 37.3697 216.104 38.1466 218.408 38.1466C220.712 38.1466 222.476 37.3697 223.699 35.816C224.922 34.2622 225.533 32.0666 225.533 29.2293V10.584C225.533 7.74663 224.922 5.55107 223.699 3.99729C222.476 2.44351 220.712 1.66663 218.408 1.66663C216.104 1.66663 214.341 2.44351 213.117 3.99729C211.894 5.55107 211.283 7.74663 211.283 10.584V29.2293C211.283 32.0666 211.894 34.2622 213.117 35.816ZM220.84 29.584C220.84 31.9146 220.03 33.08 218.408 33.08C216.787 33.08 215.976 31.9146 215.976 29.584V10.2293C215.976 7.89863 216.787 6.73329 218.408 6.73329C220.03 6.73329 220.84 7.89863 220.84 10.2293V29.584Z" fill="#989397"/>
<path d="M227.387 2.17329H232.123L235.195 29.6853H235.28L238.352 2.17329H242.662L238.139 37.64H231.91L227.387 2.17329Z" fill="#989397"/>
<path fill-rule="evenodd" clip-rule="evenodd" d="M253.691 2.17329H247.334L242.47 37.64H246.822L247.676 30.6986H253.009V30.5973L253.862 37.64H258.556L253.691 2.17329ZM250.364 8.35463L252.454 25.8853H248.23L250.278 8.35463H250.364Z" fill="#989397"/>
</svg>
